solid ASCII
  facet normal -5.773503e-01 5.773503e-01 5.773503e-01
    outer loop
      vertex   -6.512281e+01 -1.833342e+01 1.371000e+02
      vertex   -6.412281e+01 -1.833342e+01 1.381000e+02
      vertex   -6.412281e+01 -1.733342e+01 1.371000e+02
    endloop
  endfacet
  facet normal 0.000000e+00 7.071068e-01 7.071068e-01
    outer loop
      vertex   -5.512281e+01 -1.733342e+01 1.371000e+02
      vertex   -6.412281e+01 -1.733342e+01 1.371000e+02
      vertex   -5.512281e+01 -1.833342e+01 1.381000e+02
    endloop
  endfacet
  facet normal -2.791275e-16 7.071068e-01 7.071068e-01
    outer loop
      vertex   -5.512281e+01 -1.833342e+01 1.381000e+02
      vertex   -6.412281e+01 -1.733342e+01 1.371000e+02
      vertex   -6.412281e+01 -1.833342e+01 1.381000e+02
    endloop
  endfacet
  facet normal -5.509675e-01 6.418407e-01 -5.333623e-01
    outer loop
      vertex   -6.512281e+01 -1.833342e+01 1.285642e+02
      vertex   -6.412281e+01 -1.733342e+01 1.287346e+02
      vertex   -6.412281e+01 -1.831652e+01 1.275516e+02
    endloop
  endfacet
  facet normal 7.055574e-16 7.691074e-01 -6.391195e-01
    outer loop
      vertex   -5.512281e+01 -1.831652e+01 1.275516e+02
      vertex   -6.412281e+01 -1.831652e+01 1.275516e+02
      vertex   -5.512281e+01 -1.733342e+01 1.287346e+02
    endloop
  endfacet
  facet normal -3.036020e-16 7.691074e-01 -6.391195e-01
    outer loop
      vertex   -5.512281e+01 -1.733342e+01 1.287346e+02
      vertex   -6.412281e+01 -1.831652e+01 1.275516e+02
      vertex   -6.412281e+01 -1.733342e+01 1.287346e+02
    endloop
  endfacet
  facet normal -5.773503e-01 -5.773503e-01 5.773503e-01
    outer loop
      vertex   -6.512281e+01 -3.613342e+01 1.371000e+02
      vertex   -6.412281e+01 -3.713342e+01 1.371000e+02
      vertex   -6.412281e+01 -3.613342e+01 1.381000e+02
    endloop
  endfacet
  facet normal 0.000000e+00 -7.071068e-01 7.071068e-01
    outer loop
      vertex   -5.512281e+01 -3.613342e+01 1.381000e+02
      vertex   -6.412281e+01 -3.613342e+01 1.381000e+02
      vertex   -5.512281e+01 -3.713342e+01 1.371000e+02
    endloop
  endfacet
  facet normal 0.000000e+00 -7.071068e-01 7.071068e-01
    outer loop
      vertex   -5.512281e+01 -3.713342e+01 1.371000e+02
      vertex   -6.412281e+01 -3.613342e+01 1.381000e+02
      vertex   -6.412281e+01 -3.713342e+01 1.371000e+02
    endloop
  endfacet
  facet normal -7.071068e-01 0.000000e+00 7.071068e-01
    outer loop
      vertex   -6.412281e+01 -1.833342e+01 1.381000e+02
      vertex   -6.512281e+01 -1.833342e+01 1.371000e+02
      vertex   -6.412281e+01 -3.613342e+01 1.381000e+02
    endloop
  endfacet
  facet normal -7.071068e-01 0.000000e+00 7.071068e-01
    outer loop
      vertex   -6.412281e+01 -3.613342e+01 1.381000e+02
      vertex   -6.512281e+01 -1.833342e+01 1.371000e+02
      vertex   -6.512281e+01 -3.613342e+01 1.371000e+02
    endloop
  endfacet
  facet normal -5.509675e-01 -6.418407e-01 -5.333623e-01
    outer loop
      vertex   -6.512281e+01 -3.613342e+01 1.285642e+02
      vertex   -6.412281e+01 -3.615032e+01 1.275516e+02
      vertex   -6.412281e+01 -3.713342e+01 1.287346e+02
    endloop
  endfacet
  facet normal -0.000000e+00 -7.691074e-01 -6.391195e-01
    outer loop
      vertex   -5.512281e+01 -3.713342e+01 1.287346e+02
      vertex   -6.412281e+01 -3.713342e+01 1.287346e+02
      vertex   -5.512281e+01 -3.615032e+01 1.275516e+02
    endloop
  endfacet
  facet normal -0.000000e+00 -7.691074e-01 -6.391195e-01
    outer loop
      vertex   -5.512281e+01 -3.615032e+01 1.275516e+02
      vertex   -6.412281e+01 -3.713342e+01 1.287346e+02
      vertex   -6.412281e+01 -3.615032e+01 1.275516e+02
    endloop
  endfacet
  facet normal -7.071068e-01 -7.071068e-01 -6.006057e-16
    outer loop
      vertex   -6.412281e+01 -3.713342e+01 1.371000e+02
      vertex   -6.512281e+01 -3.613342e+01 1.371000e+02
      vertex   -6.412281e+01 -3.713342e+01 1.287346e+02
    endloop
  endfacet
  facet normal -7.071068e-01 -7.071068e-01 0.000000e+00
    outer loop
      vertex   -6.412281e+01 -3.713342e+01 1.287346e+02
      vertex   -6.512281e+01 -3.613342e+01 1.371000e+02
      vertex   -6.512281e+01 -3.613342e+01 1.285642e+02
    endloop
  endfacet
  facet normal -7.076695e-01 -1.165279e-01 -6.968681e-01
    outer loop
      vertex   -6.512281e+01 -3.613342e+01 1.285642e+02
      vertex   -6.512281e+01 -3.495686e+01 1.283675e+02
      vertex   -6.412281e+01 -3.615032e+01 1.275516e+02
    endloop
  endfacet
  facet normal -7.065825e-01 -1.146511e-01 -6.982810e-01
    outer loop
      vertex   -6.412281e+01 -3.615032e+01 1.275516e+02
      vertex   -6.512281e+01 -3.495686e+01 1.283675e+02
      vertex   -6.412281e+01 -3.497117e+01 1.273580e+02
    endloop
  endfacet
  facet normal -7.076017e-01 -1.000121e-01 -6.994980e-01
    outer loop
      vertex   -6.412281e+01 -3.497117e+01 1.273580e+02
      vertex   -6.512281e+01 -3.495686e+01 1.283675e+02
      vertex   -6.512281e+01 -3.377598e+01 1.281987e+02
    endloop
  endfacet
  facet normal -7.066509e-01 -9.837821e-02 -7.006899e-01
    outer loop
      vertex   -6.412281e+01 -3.497117e+01 1.273580e+02
      vertex   -6.512281e+01 -3.377598e+01 1.281987e+02
      vertex   -6.412281e+01 -3.378783e+01 1.271918e+02
    endloop
  endfacet
  facet normal -7.075306e-01 -8.343759e-02 -7.017397e-01
    outer loop
      vertex   -6.412281e+01 -3.378783e+01 1.271918e+02
      vertex   -6.512281e+01 -3.377598e+01 1.281987e+02
      vertex   -6.512281e+01 -3.259142e+01 1.280578e+02
    endloop
  endfacet
  facet normal -7.067224e-01 -8.205492e-02 -7.027165e-01
    outer loop
      vertex   -6.412281e+01 -3.378783e+01 1.271918e+02
      vertex   -6.512281e+01 -3.259142e+01 1.280578e+02
      vertex   -6.412281e+01 -3.260096e+01 1.270532e+02
    endloop
  endfacet
  facet normal -7.074564e-01 -6.681326e-02 -7.035918e-01
    outer loop
      vertex   -6.412281e+01 -3.260096e+01 1.270532e+02
      vertex   -6.512281e+01 -3.259142e+01 1.280578e+02
      vertex   -6.512281e+01 -3.140387e+01 1.279450e+02
    endloop
  endfacet
  facet normal -7.067970e-01 -6.569029e-02 -7.043598e-01
    outer loop
      vertex   -6.412281e+01 -3.260096e+01 1.270532e+02
      vertex   -6.512281e+01 -3.140387e+01 1.279450e+02
      vertex   -6.412281e+01 -3.141118e+01 1.269423e+02
    endloop
  endfacet
  facet normal -7.073789e-01 -5.014823e-02 -7.050534e-01
    outer loop
      vertex   -6.412281e+01 -3.141118e+01 1.269423e+02
      vertex   -6.512281e+01 -3.140387e+01 1.279450e+02
      vertex   -6.512281e+01 -3.021398e+01 1.278604e+02
    endloop
  endfacet
  facet normal -7.068748e-01 -4.929339e-02 -7.056190e-01
    outer loop
      vertex   -6.412281e+01 -3.141118e+01 1.269423e+02
      vertex   -6.512281e+01 -3.021398e+01 1.278604e+02
      vertex   -6.412281e+01 -3.021915e+01 1.268590e+02
    endloop
  endfacet
  facet normal -7.072981e-01 -3.345159e-02 -7.061235e-01
    outer loop
      vertex   -6.412281e+01 -3.021915e+01 1.268590e+02
      vertex   -6.512281e+01 -3.021398e+01 1.278604e+02
      vertex   -6.512281e+01 -2.902243e+01 1.278040e+02
    endloop
  endfacet
  facet normal -7.069557e-01 -3.287331e-02 -7.064935e-01
    outer loop
      vertex   -6.412281e+01 -3.021915e+01 1.268590e+02
      vertex   -6.512281e+01 -2.902243e+01 1.278040e+02
      vertex   -6.412281e+01 -2.902550e+01 1.268035e+02
    endloop
  endfacet
  facet normal -7.072141e-01 -1.673247e-02 -7.068014e-01
    outer loop
      vertex   -6.412281e+01 -2.902550e+01 1.268035e+02
      vertex   -6.512281e+01 -2.902243e+01 1.278040e+02
      vertex   -6.512281e+01 -2.782987e+01 1.277757e+02
    endloop
  endfacet
  facet normal -7.070397e-01 -1.643915e-02 -7.069827e-01
    outer loop
      vertex   -6.412281e+01 -2.902550e+01 1.268035e+02
      vertex   -6.512281e+01 -2.782987e+01 1.277757e+02
      vertex   -6.412281e+01 -2.783089e+01 1.267757e+02
    endloop
  endfacet
  facet normal -7.071269e-01 0.000000e+00 -7.070867e-01
    outer loop
      vertex   -6.412281e+01 -2.783089e+01 1.267757e+02
      vertex   -6.512281e+01 -2.782987e+01 1.277757e+02
      vertex   -6.512281e+01 -2.663697e+01 1.277757e+02
    endloop
  endfacet
  facet normal -7.071269e-01 0.000000e+00 -7.070867e-01
    outer loop
      vertex   -6.412281e+01 -2.783089e+01 1.267757e+02
      vertex   -6.512281e+01 -2.663697e+01 1.277757e+02
      vertex   -6.412281e+01 -2.663595e+01 1.267757e+02
    endloop
  endfacet
  facet normal -7.070397e-01 1.643915e-02 -7.069827e-01
    outer loop
      vertex   -6.412281e+01 -2.663595e+01 1.267757e+02
      vertex   -6.512281e+01 -2.663697e+01 1.277757e+02
      vertex   -6.412281e+01 -2.544133e+01 1.268035e+02
    endloop
  endfacet
  facet normal -7.072141e-01 1.673247e-02 -7.068014e-01
    outer loop
      vertex   -6.412281e+01 -2.544133e+01 1.268035e+02
      vertex   -6.512281e+01 -2.663697e+01 1.277757e+02
      vertex   -6.512281e+01 -2.544441e+01 1.278040e+02
    endloop
  endfacet
  facet normal -7.069557e-01 3.287331e-02 -7.064935e-01
    outer loop
      vertex   -6.412281e+01 -2.544133e+01 1.268035e+02
      vertex   -6.512281e+01 -2.544441e+01 1.278040e+02
      vertex   -6.412281e+01 -2.424769e+01 1.268590e+02
    endloop
  endfacet
  facet normal -7.072981e-01 3.345159e-02 -7.061235e-01
    outer loop
      vertex   -6.412281e+01 -2.424769e+01 1.268590e+02
      vertex   -6.512281e+01 -2.544441e+01 1.278040e+02
      vertex   -6.512281e+01 -2.425285e+01 1.278604e+02
    endloop
  endfacet
  facet normal -7.068748e-01 4.929339e-02 -7.056190e-01
    outer loop
      vertex   -6.412281e+01 -2.424769e+01 1.268590e+02
      vertex   -6.512281e+01 -2.425285e+01 1.278604e+02
      vertex   -6.412281e+01 -2.305565e+01 1.269423e+02
    endloop
  endfacet
  facet normal -7.073789e-01 5.014823e-02 -7.050534e-01
    outer loop
      vertex   -6.412281e+01 -2.305565e+01 1.269423e+02
      vertex   -6.512281e+01 -2.425285e+01 1.278604e+02
      vertex   -6.512281e+01 -2.306297e+01 1.279450e+02
    endloop
  endfacet
  facet normal -7.067970e-01 6.569029e-02 -7.043598e-01
    outer loop
      vertex   -6.412281e+01 -2.305565e+01 1.269423e+02
      vertex   -6.512281e+01 -2.306297e+01 1.279450e+02
      vertex   -6.412281e+01 -2.186588e+01 1.270532e+02
    endloop
  endfacet
  facet normal -7.074564e-01 6.681326e-02 -7.035918e-01
    outer loop
      vertex   -6.412281e+01 -2.186588e+01 1.270532e+02
      vertex   -6.512281e+01 -2.306297e+01 1.279450e+02
      vertex   -6.512281e+01 -2.187541e+01 1.280578e+02
    endloop
  endfacet
  facet normal -7.067224e-01 8.205492e-02 -7.027165e-01
    outer loop
      vertex   -6.412281e+01 -2.186588e+01 1.270532e+02
      vertex   -6.512281e+01 -2.187541e+01 1.280578e+02
      vertex   -6.412281e+01 -2.067900e+01 1.271918e+02
    endloop
  endfacet
  facet normal -7.075306e-01 8.343759e-02 -7.017397e-01
    outer loop
      vertex   -6.412281e+01 -2.067900e+01 1.271918e+02
      vertex   -6.512281e+01 -2.187541e+01 1.280578e+02
      vertex   -6.512281e+01 -2.069086e+01 1.281987e+02
    endloop
  endfacet
  facet normal -7.066509e-01 9.837821e-02 -7.006899e-01
    outer loop
      vertex   -6.412281e+01 -2.067900e+01 1.271918e+02
      vertex   -6.512281e+01 -2.069086e+01 1.281987e+02
      vertex   -6.412281e+01 -1.949567e+01 1.273580e+02
    endloop
  endfacet
  facet normal -7.076017e-01 1.000121e-01 -6.994980e-01
    outer loop
      vertex   -6.412281e+01 -1.949567e+01 1.273580e+02
      vertex   -6.512281e+01 -2.069086e+01 1.281987e+02
      vertex   -6.512281e+01 -1.950998e+01 1.283675e+02
    endloop
  endfacet
  facet normal -7.065825e-01 1.146511e-01 -6.982810e-01
    outer loop
      vertex   -6.412281e+01 -1.949567e+01 1.273580e+02
      vertex   -6.512281e+01 -1.950998e+01 1.283675e+02
      vertex   -6.412281e+01 -1.831652e+01 1.275516e+02
    endloop
  endfacet
  facet normal -7.076695e-01 1.165279e-01 -6.968681e-01
    outer loop
      vertex   -6.412281e+01 -1.831652e+01 1.275516e+02
      vertex   -6.512281e+01 -1.950998e+01 1.283675e+02
      vertex   -6.512281e+01 -1.833342e+01 1.285642e+02
    endloop
  endfacet
  facet normal -7.071068e-01 7.071068e-01 -2.943086e-16
    outer loop
      vertex   -6.512281e+01 -1.833342e+01 1.285642e+02
      vertex   -6.512281e+01 -1.833342e+01 1.371000e+02
      vertex   -6.412281e+01 -1.733342e+01 1.287346e+02
    endloop
  endfacet
  facet normal -7.071068e-01 7.071068e-01 -3.003028e-16
    outer loop
      vertex   -6.412281e+01 -1.733342e+01 1.287346e+02
      vertex   -6.512281e+01 -1.833342e+01 1.371000e+02
      vertex   -6.412281e+01 -1.733342e+01 1.371000e+02
    endloop
  endfacet
  facet normal -0.000000e+00 0.000000e+00 1.000000e+00
    outer loop
      vertex   -6.412281e+01 -1.833342e+01 1.381000e+02
      vertex   -6.412281e+01 -3.613342e+01 1.381000e+02
      vertex   -5.512281e+01 -1.833342e+01 1.381000e+02
    endloop
  endfacet
  facet normal 0.000000e+00 0.000000e+00 1.000000e+00
    outer loop
      vertex   -5.512281e+01 -1.833342e+01 1.381000e+02
      vertex   -6.412281e+01 -3.613342e+01 1.381000e+02
      vertex   -5.512281e+01 -3.613342e+01 1.381000e+02
    endloop
  endfacet
  facet normal 0.000000e+00 -1.000000e+00 -8.493847e-16
    outer loop
      vertex   -6.412281e+01 -3.713342e+01 1.371000e+02
      vertex   -6.412281e+01 -3.713342e+01 1.287346e+02
      vertex   -5.512281e+01 -3.713342e+01 1.371000e+02
    endloop
  endfacet
  facet normal 0.000000e+00 -1.000000e+00 -8.493847e-16
    outer loop
      vertex   -5.512281e+01 -3.713342e+01 1.371000e+02
      vertex   -6.412281e+01 -3.713342e+01 1.287346e+02
      vertex   -5.512281e+01 -3.713342e+01 1.287346e+02
    endloop
  endfacet
  facet normal -1.000000e+00 0.000000e+00 0.000000e+00
    outer loop
      vertex   -6.512281e+01 -2.358342e+01 1.359000e+02
      vertex   -6.512281e+01 -1.833342e+01 1.371000e+02
      vertex   -6.512281e+01 -2.358342e+01 1.315000e+02
    endloop
  endfacet
  facet normal -1.000000e+00 0.000000e+00 0.000000e+00
    outer loop
      vertex   -6.512281e+01 -2.358342e+01 1.315000e+02
      vertex   -6.512281e+01 -1.833342e+01 1.371000e+02
      vertex   -6.512281e+01 -1.833342e+01 1.285642e+02
    endloop
  endfacet
  facet normal -1.000000e+00 0.000000e+00 0.000000e+00
    outer loop
      vertex   -6.512281e+01 -2.358342e+01 1.315000e+02
      vertex   -6.512281e+01 -1.833342e+01 1.285642e+02
      vertex   -6.512281e+01 -1.950998e+01 1.283675e+02
    endloop
  endfacet
  facet normal -1.000000e+00 0.000000e+00 0.000000e+00
    outer loop
      vertex   -6.512281e+01 -2.358342e+01 1.359000e+02
      vertex   -6.512281e+01 -3.088342e+01 1.359000e+02
      vertex   -6.512281e+01 -1.833342e+01 1.371000e+02
    endloop
  endfacet
  facet normal -1.000000e+00 -0.000000e+00 0.000000e+00
    outer loop
      vertex   -6.512281e+01 -1.833342e+01 1.371000e+02
      vertex   -6.512281e+01 -3.088342e+01 1.359000e+02
      vertex   -6.512281e+01 -3.613342e+01 1.371000e+02
    endloop
  endfacet
  facet normal -1.000000e+00 0.000000e+00 0.000000e+00
    outer loop
      vertex   -6.512281e+01 -3.613342e+01 1.371000e+02
      vertex   -6.512281e+01 -3.088342e+01 1.359000e+02
      vertex   -6.512281e+01 -3.088342e+01 1.315000e+02
    endloop
  endfacet
  facet normal -1.000000e+00 0.000000e+00 0.000000e+00
    outer loop
      vertex   -6.512281e+01 -3.613342e+01 1.371000e+02
      vertex   -6.512281e+01 -3.088342e+01 1.315000e+02
      vertex   -6.512281e+01 -3.613342e+01 1.285642e+02
    endloop
  endfacet
  facet normal -1.000000e+00 0.000000e+00 0.000000e+00
    outer loop
      vertex   -6.512281e+01 -3.613342e+01 1.285642e+02
      vertex   -6.512281e+01 -3.088342e+01 1.315000e+02
      vertex   -6.512281e+01 -3.495686e+01 1.283675e+02
    endloop
  endfacet
  facet normal -1.000000e+00 0.000000e+00 0.000000e+00
    outer loop
      vertex   -6.512281e+01 -3.495686e+01 1.283675e+02
      vertex   -6.512281e+01 -3.088342e+01 1.315000e+02
      vertex   -6.512281e+01 -3.377598e+01 1.281987e+02
    endloop
  endfacet
  facet normal -1.000000e+00 0.000000e+00 0.000000e+00
    outer loop
      vertex   -6.512281e+01 -3.377598e+01 1.281987e+02
      vertex   -6.512281e+01 -3.088342e+01 1.315000e+02
      vertex   -6.512281e+01 -3.259142e+01 1.280578e+02
    endloop
  endfacet
  facet normal -1.000000e+00 0.000000e+00 0.000000e+00
    outer loop
      vertex   -6.512281e+01 -3.259142e+01 1.280578e+02
      vertex   -6.512281e+01 -3.088342e+01 1.315000e+02
      vertex   -6.512281e+01 -3.140387e+01 1.279450e+02
    endloop
  endfacet
  facet normal -1.000000e+00 0.000000e+00 0.000000e+00
    outer loop
      vertex   -6.512281e+01 -3.140387e+01 1.279450e+02
      vertex   -6.512281e+01 -3.088342e+01 1.315000e+02
      vertex   -6.512281e+01 -3.021398e+01 1.278604e+02
    endloop
  endfacet
  facet normal -1.000000e+00 0.000000e+00 0.000000e+00
    outer loop
      vertex   -6.512281e+01 -3.021398e+01 1.278604e+02
      vertex   -6.512281e+01 -3.088342e+01 1.315000e+02
      vertex   -6.512281e+01 -2.902243e+01 1.278040e+02
    endloop
  endfacet
  facet normal -1.000000e+00 0.000000e+00 0.000000e+00
    outer loop
      vertex   -6.512281e+01 -2.902243e+01 1.278040e+02
      vertex   -6.512281e+01 -3.088342e+01 1.315000e+02
      vertex   -6.512281e+01 -2.782987e+01 1.277757e+02
    endloop
  endfacet
  facet normal -1.000000e+00 0.000000e+00 0.000000e+00
    outer loop
      vertex   -6.512281e+01 -2.782987e+01 1.277757e+02
      vertex   -6.512281e+01 -3.088342e+01 1.315000e+02
      vertex   -6.512281e+01 -2.358342e+01 1.315000e+02
    endloop
  endfacet
  facet normal -1.000000e+00 0.000000e+00 0.000000e+00
    outer loop
      vertex   -6.512281e+01 -2.782987e+01 1.277757e+02
      vertex   -6.512281e+01 -2.358342e+01 1.315000e+02
      vertex   -6.512281e+01 -2.663697e+01 1.277757e+02
    endloop
  endfacet
  facet normal -1.000000e+00 0.000000e+00 0.000000e+00
    outer loop
      vertex   -6.512281e+01 -2.663697e+01 1.277757e+02
      vertex   -6.512281e+01 -2.358342e+01 1.315000e+02
      vertex   -6.512281e+01 -2.544441e+01 1.278040e+02
    endloop
  endfacet
  facet normal -1.000000e+00 0.000000e+00 0.000000e+00
    outer loop
      vertex   -6.512281e+01 -2.544441e+01 1.278040e+02
      vertex   -6.512281e+01 -2.358342e+01 1.315000e+02
      vertex   -6.512281e+01 -2.425285e+01 1.278604e+02
    endloop
  endfacet
  facet normal -1.000000e+00 0.000000e+00 0.000000e+00
    outer loop
      vertex   -6.512281e+01 -2.425285e+01 1.278604e+02
      vertex   -6.512281e+01 -2.358342e+01 1.315000e+02
      vertex   -6.512281e+01 -2.306297e+01 1.279450e+02
    endloop
  endfacet
  facet normal -1.000000e+00 0.000000e+00 0.000000e+00
    outer loop
      vertex   -6.512281e+01 -2.306297e+01 1.279450e+02
      vertex   -6.512281e+01 -2.358342e+01 1.315000e+02
      vertex   -6.512281e+01 -2.187541e+01 1.280578e+02
    endloop
  endfacet
  facet normal -1.000000e+00 0.000000e+00 0.000000e+00
    outer loop
      vertex   -6.512281e+01 -2.187541e+01 1.280578e+02
      vertex   -6.512281e+01 -2.358342e+01 1.315000e+02
      vertex   -6.512281e+01 -2.069086e+01 1.281987e+02
    endloop
  endfacet
  facet normal -1.000000e+00 0.000000e+00 0.000000e+00
    outer loop
      vertex   -6.512281e+01 -2.069086e+01 1.281987e+02
      vertex   -6.512281e+01 -2.358342e+01 1.315000e+02
      vertex   -6.512281e+01 -1.950998e+01 1.283675e+02
    endloop
  endfacet
  facet normal 0.000000e+00 1.000000e+00 0.000000e+00
    outer loop
      vertex   -6.512281e+01 -3.088342e+01 1.315000e+02
      vertex   -6.512281e+01 -3.088342e+01 1.359000e+02
      vertex   -6.392281e+01 -3.088342e+01 1.315000e+02
    endloop
  endfacet
  facet normal 0.000000e+00 1.000000e+00 -0.000000e+00
    outer loop
      vertex   -6.392281e+01 -3.088342e+01 1.315000e+02
      vertex   -6.512281e+01 -3.088342e+01 1.359000e+02
      vertex   -6.392281e+01 -3.088342e+01 1.359000e+02
    endloop
  endfacet
  facet normal -0.000000e+00 0.000000e+00 1.000000e+00
    outer loop
      vertex   -6.512281e+01 -2.358342e+01 1.315000e+02
      vertex   -6.512281e+01 -3.088342e+01 1.315000e+02
      vertex   -6.392281e+01 -2.358342e+01 1.315000e+02
    endloop
  endfacet
  facet normal 0.000000e+00 0.000000e+00 1.000000e+00
    outer loop
      vertex   -6.392281e+01 -2.358342e+01 1.315000e+02
      vertex   -6.512281e+01 -3.088342e+01 1.315000e+02
      vertex   -6.392281e+01 -3.088342e+01 1.315000e+02
    endloop
  endfacet
  facet normal 0.000000e+00 -1.000000e+00 0.000000e+00
    outer loop
      vertex   -6.512281e+01 -2.358342e+01 1.359000e+02
      vertex   -6.512281e+01 -2.358342e+01 1.315000e+02
      vertex   -6.392281e+01 -2.358342e+01 1.359000e+02
    endloop
  endfacet
  facet normal 0.000000e+00 -1.000000e+00 -0.000000e+00
    outer loop
      vertex   -6.392281e+01 -2.358342e+01 1.359000e+02
      vertex   -6.512281e+01 -2.358342e+01 1.315000e+02
      vertex   -6.392281e+01 -2.358342e+01 1.315000e+02
    endloop
  endfacet
  facet normal 0.000000e+00 0.000000e+00 -1.000000e+00
    outer loop
      vertex   -6.512281e+01 -3.088342e+01 1.359000e+02
      vertex   -6.512281e+01 -2.358342e+01 1.359000e+02
      vertex   -6.392281e+01 -3.088342e+01 1.359000e+02
    endloop
  endfacet
  facet normal 0.000000e+00 0.000000e+00 -1.000000e+00
    outer loop
      vertex   -6.392281e+01 -3.088342e+01 1.359000e+02
      vertex   -6.512281e+01 -2.358342e+01 1.359000e+02
      vertex   -6.392281e+01 -2.358342e+01 1.359000e+02
    endloop
  endfacet
  facet normal 0.000000e+00 -1.000000e+00 4.349464e-16
    outer loop
      vertex   -5.512281e+01 -1.853342e+01 1.287318e+02
      vertex   -5.512281e+01 -1.853342e+01 1.369000e+02
      vertex   -6.392281e+01 -1.853342e+01 1.287318e+02
    endloop
  endfacet
  facet normal 0.000000e+00 -1.000000e+00 4.349464e-16
    outer loop
      vertex   -6.392281e+01 -1.853342e+01 1.287318e+02
      vertex   -5.512281e+01 -1.853342e+01 1.369000e+02
      vertex   -6.392281e+01 -1.853342e+01 1.369000e+02
    endloop
  endfacet
  facet normal -0.000000e+00 -0.000000e+00 -1.000000e+00
    outer loop
      vertex   -5.512281e+01 -1.853342e+01 1.369000e+02
      vertex   -5.512281e+01 -3.593342e+01 1.369000e+02
      vertex   -6.392281e+01 -1.853342e+01 1.369000e+02
    endloop
  endfacet
  facet normal 0.000000e+00 0.000000e+00 -1.000000e+00
    outer loop
      vertex   -6.392281e+01 -1.853342e+01 1.369000e+02
      vertex   -5.512281e+01 -3.593342e+01 1.369000e+02
      vertex   -6.392281e+01 -3.593342e+01 1.369000e+02
    endloop
  endfacet
  facet normal 0.000000e+00 1.000000e+00 1.739785e-15
    outer loop
      vertex   -5.512281e+01 -3.593342e+01 1.369000e+02
      vertex   -5.512281e+01 -3.593342e+01 1.287318e+02
      vertex   -6.392281e+01 -3.593342e+01 1.369000e+02
    endloop
  endfacet
  facet normal 0.000000e+00 1.000000e+00 1.739785e-15
    outer loop
      vertex   -6.392281e+01 -3.593342e+01 1.369000e+02
      vertex   -5.512281e+01 -3.593342e+01 1.287318e+02
      vertex   -6.392281e+01 -3.593342e+01 1.287318e+02
    endloop
  endfacet
  facet normal -0.000000e+00 1.610401e-01 9.869479e-01
    outer loop
      vertex   -6.392281e+01 -3.593342e+01 1.287318e+02
      vertex   -5.512281e+01 -3.593342e+01 1.287318e+02
      vertex   -6.392281e+01 -3.470059e+01 1.285307e+02
    endloop
  endfacet
  facet normal -0.000000e+00 1.610401e-01 9.869479e-01
    outer loop
      vertex   -6.392281e+01 -3.470059e+01 1.285307e+02
      vertex   -5.512281e+01 -3.593342e+01 1.287318e+02
      vertex   -5.512281e+01 -3.470059e+01 1.285307e+02
    endloop
  endfacet
  facet normal -0.000000e+00 1.364338e-01 9.906492e-01
    outer loop
      vertex   -6.392281e+01 -3.470059e+01 1.285307e+02
      vertex   -5.512281e+01 -3.470059e+01 1.285307e+02
      vertex   -6.392281e+01 -3.346314e+01 1.283603e+02
    endloop
  endfacet
  facet normal -2.203228e-16 1.364338e-01 9.906492e-01
    outer loop
      vertex   -6.392281e+01 -3.346314e+01 1.283603e+02
      vertex   -5.512281e+01 -3.470059e+01 1.285307e+02
      vertex   -5.512281e+01 -3.346314e+01 1.283603e+02
    endloop
  endfacet
  facet normal -1.804504e-16 1.117430e-01 9.937371e-01
    outer loop
      vertex   -6.392281e+01 -3.346314e+01 1.283603e+02
      vertex   -5.512281e+01 -3.346314e+01 1.283603e+02
      vertex   -6.392281e+01 -3.222183e+01 1.282207e+02
    endloop
  endfacet
  facet normal -0.000000e+00 1.117430e-01 9.937371e-01
    outer loop
      vertex   -6.392281e+01 -3.222183e+01 1.282207e+02
      vertex   -5.512281e+01 -3.346314e+01 1.283603e+02
      vertex   -5.512281e+01 -3.222183e+01 1.282207e+02
    endloop
  endfacet
  facet normal -0.000000e+00 8.698307e-02 9.962098e-01
    outer loop
      vertex   -6.392281e+01 -3.222183e+01 1.282207e+02
      vertex   -5.512281e+01 -3.222183e+01 1.282207e+02
      vertex   -6.392281e+01 -3.097743e+01 1.281120e+02
    endloop
  endfacet
  facet normal -0.000000e+00 8.698307e-02 9.962098e-01
    outer loop
      vertex   -6.392281e+01 -3.097743e+01 1.281120e+02
      vertex   -5.512281e+01 -3.222183e+01 1.282207e+02
      vertex   -5.512281e+01 -3.097743e+01 1.281120e+02
    endloop
  endfacet
  facet normal -0.000000e+00 6.216926e-02 9.980656e-01
    outer loop
      vertex   -6.392281e+01 -3.097743e+01 1.281120e+02
      vertex   -5.512281e+01 -3.097743e+01 1.281120e+02
      vertex   -6.392281e+01 -2.973072e+01 1.280344e+02
    endloop
  endfacet
  facet normal -0.000000e+00 6.216926e-02 9.980656e-01
    outer loop
      vertex   -6.392281e+01 -2.973072e+01 1.280344e+02
      vertex   -5.512281e+01 -3.097743e+01 1.281120e+02
      vertex   -5.512281e+01 -2.973072e+01 1.280344e+02
    endloop
  endfacet
  facet normal -0.000000e+00 3.731696e-02 9.993035e-01
    outer loop
      vertex   -6.392281e+01 -2.973072e+01 1.280344e+02
      vertex   -5.512281e+01 -2.973072e+01 1.280344e+02
      vertex   -6.392281e+01 -2.848245e+01 1.279877e+02
    endloop
  endfacet
  facet normal -0.000000e+00 3.731696e-02 9.993035e-01
    outer loop
      vertex   -6.392281e+01 -2.848245e+01 1.279877e+02
      vertex   -5.512281e+01 -2.973072e+01 1.280344e+02
      vertex   -5.512281e+01 -2.848245e+01 1.279877e+02
    endloop
  endfacet
  facet normal -0.000000e+00 1.244156e-02 9.999226e-01
    outer loop
      vertex   -6.392281e+01 -2.848245e+01 1.279877e+02
      vertex   -5.512281e+01 -2.848245e+01 1.279877e+02
      vertex   -6.392281e+01 -2.723342e+01 1.279722e+02
    endloop
  endfacet
  facet normal -0.000000e+00 1.244156e-02 9.999226e-01
    outer loop
      vertex   -6.392281e+01 -2.723342e+01 1.279722e+02
      vertex   -5.512281e+01 -2.848245e+01 1.279877e+02
      vertex   -5.512281e+01 -2.723342e+01 1.279722e+02
    endloop
  endfacet
  facet normal 0.000000e+00 -1.244156e-02 9.999226e-01
    outer loop
      vertex   -6.392281e+01 -2.723342e+01 1.279722e+02
      vertex   -5.512281e+01 -2.723342e+01 1.279722e+02
      vertex   -6.392281e+01 -2.598438e+01 1.279877e+02
    endloop
  endfacet
  facet normal 1.629813e-15 -1.244156e-02 9.999226e-01
    outer loop
      vertex   -6.392281e+01 -2.598438e+01 1.279877e+02
      vertex   -5.512281e+01 -2.723342e+01 1.279722e+02
      vertex   -5.512281e+01 -2.598438e+01 1.279877e+02
    endloop
  endfacet
  facet normal 1.658942e-15 -3.731696e-02 9.993035e-01
    outer loop
      vertex   -6.392281e+01 -2.598438e+01 1.279877e+02
      vertex   -5.512281e+01 -2.598438e+01 1.279877e+02
      vertex   -6.392281e+01 -2.473612e+01 1.280344e+02
    endloop
  endfacet
  facet normal 0.000000e+00 -3.731696e-02 9.993035e-01
    outer loop
      vertex   -6.392281e+01 -2.473612e+01 1.280344e+02
      vertex   -5.512281e+01 -2.598438e+01 1.279877e+02
      vertex   -5.512281e+01 -2.473612e+01 1.280344e+02
    endloop
  endfacet
  facet normal 0.000000e+00 -6.216926e-02 9.980656e-01
    outer loop
      vertex   -6.392281e+01 -2.473612e+01 1.280344e+02
      vertex   -5.512281e+01 -2.473612e+01 1.280344e+02
      vertex   -6.392281e+01 -2.348941e+01 1.281120e+02
    endloop
  endfacet
  facet normal 2.509882e-17 -6.216926e-02 9.980656e-01
    outer loop
      vertex   -6.392281e+01 -2.348941e+01 1.281120e+02
      vertex   -5.512281e+01 -2.473612e+01 1.280344e+02
      vertex   -5.512281e+01 -2.348941e+01 1.281120e+02
    endloop
  endfacet
  facet normal 3.511658e-17 -8.698307e-02 9.962098e-01
    outer loop
      vertex   -6.392281e+01 -2.348941e+01 1.281120e+02
      vertex   -5.512281e+01 -2.348941e+01 1.281120e+02
      vertex   -6.392281e+01 -2.224501e+01 1.282207e+02
    endloop
  endfacet
  facet normal 3.511658e-17 -8.698307e-02 9.962098e-01
    outer loop
      vertex   -6.392281e+01 -2.224501e+01 1.282207e+02
      vertex   -5.512281e+01 -2.348941e+01 1.281120e+02
      vertex   -5.512281e+01 -2.224501e+01 1.282207e+02
    endloop
  endfacet
  facet normal 4.511261e-17 -1.117430e-01 9.937371e-01
    outer loop
      vertex   -6.392281e+01 -2.224501e+01 1.282207e+02
      vertex   -5.512281e+01 -2.224501e+01 1.282207e+02
      vertex   -6.392281e+01 -2.100370e+01 1.283603e+02
    endloop
  endfacet
  facet normal 0.000000e+00 -1.117430e-01 9.937371e-01
    outer loop
      vertex   -6.392281e+01 -2.100370e+01 1.283603e+02
      vertex   -5.512281e+01 -2.224501e+01 1.282207e+02
      vertex   -5.512281e+01 -2.100370e+01 1.283603e+02
    endloop
  endfacet
  facet normal 0.000000e+00 -1.364338e-01 9.906492e-01
    outer loop
      vertex   -6.392281e+01 -2.100370e+01 1.283603e+02
      vertex   -5.512281e+01 -2.100370e+01 1.283603e+02
      vertex   -6.392281e+01 -1.976625e+01 1.285307e+02
    endloop
  endfacet
  facet normal 0.000000e+00 -1.364338e-01 9.906492e-01
    outer loop
      vertex   -6.392281e+01 -1.976625e+01 1.285307e+02
      vertex   -5.512281e+01 -2.100370e+01 1.283603e+02
      vertex   -5.512281e+01 -1.976625e+01 1.285307e+02
    endloop
  endfacet
  facet normal 0.000000e+00 -1.610401e-01 9.869479e-01
    outer loop
      vertex   -6.392281e+01 -1.976625e+01 1.285307e+02
      vertex   -5.512281e+01 -1.976625e+01 1.285307e+02
      vertex   -6.392281e+01 -1.853342e+01 1.287318e+02
    endloop
  endfacet
  facet normal 0.000000e+00 -1.610401e-01 9.869479e-01
    outer loop
      vertex   -6.392281e+01 -1.853342e+01 1.287318e+02
      vertex   -5.512281e+01 -1.976625e+01 1.285307e+02
      vertex   -5.512281e+01 -1.853342e+01 1.287318e+02
    endloop
  endfacet
  facet normal 1.000000e+00 -2.814031e-15 0.000000e+00
    outer loop
      vertex   -6.392281e+01 -2.358342e+01 1.315000e+02
      vertex   -6.392281e+01 -1.853342e+01 1.369000e+02
      vertex   -6.392281e+01 -2.358342e+01 1.359000e+02
    endloop
  endfacet
  facet normal 1.000000e+00 0.000000e+00 -1.421085e-14
    outer loop
      vertex   -6.392281e+01 -2.358342e+01 1.359000e+02
      vertex   -6.392281e+01 -1.853342e+01 1.369000e+02
      vertex   -6.392281e+01 -3.593342e+01 1.369000e+02
    endloop
  endfacet
  facet normal 1.000000e+00 0.000000e+00 -1.421085e-14
    outer loop
      vertex   -6.392281e+01 -2.358342e+01 1.359000e+02
      vertex   -6.392281e+01 -3.593342e+01 1.369000e+02
      vertex   -6.392281e+01 -3.088342e+01 1.359000e+02
    endloop
  endfacet
  facet normal 1.000000e+00 2.814031e-15 0.000000e+00
    outer loop
      vertex   -6.392281e+01 -3.088342e+01 1.359000e+02
      vertex   -6.392281e+01 -3.593342e+01 1.369000e+02
      vertex   -6.392281e+01 -3.088342e+01 1.315000e+02
    endloop
  endfacet
  facet normal 1.000000e+00 2.814031e-15 4.895810e-30
    outer loop
      vertex   -6.392281e+01 -3.088342e+01 1.315000e+02
      vertex   -6.392281e+01 -3.593342e+01 1.369000e+02
      vertex   -6.392281e+01 -3.593342e+01 1.287318e+02
    endloop
  endfacet
  facet normal 1.000000e+00 9.528361e-15 -1.224904e-14
    outer loop
      vertex   -6.392281e+01 -3.088342e+01 1.315000e+02
      vertex   -6.392281e+01 -3.593342e+01 1.287318e+02
      vertex   -6.392281e+01 -3.470059e+01 1.285307e+02
    endloop
  endfacet
  facet normal 1.000000e+00 -0.000000e+00 0.000000e+00
    outer loop
      vertex   -6.392281e+01 -3.088342e+01 1.315000e+02
      vertex   -6.392281e+01 -2.723342e+01 1.279722e+02
      vertex   -6.392281e+01 -2.358342e+01 1.315000e+02
    endloop
  endfacet
  facet normal 1.000000e+00 0.000000e+00 0.000000e+00
    outer loop
      vertex   -6.392281e+01 -2.358342e+01 1.315000e+02
      vertex   -6.392281e+01 -2.723342e+01 1.279722e+02
      vertex   -6.392281e+01 -2.598438e+01 1.279877e+02
    endloop
  endfacet
  facet normal 1.000000e+00 0.000000e+00 0.000000e+00
    outer loop
      vertex   -6.392281e+01 -2.358342e+01 1.315000e+02
      vertex   -6.392281e+01 -2.598438e+01 1.279877e+02
      vertex   -6.392281e+01 -2.473612e+01 1.280344e+02
    endloop
  endfacet
  facet normal 1.000000e+00 -0.000000e+00 0.000000e+00
    outer loop
      vertex   -6.392281e+01 -3.470059e+01 1.285307e+02
      vertex   -6.392281e+01 -3.346314e+01 1.283603e+02
      vertex   -6.392281e+01 -3.088342e+01 1.315000e+02
    endloop
  endfacet
  facet normal 1.000000e+00 0.000000e+00 0.000000e+00
    outer loop
      vertex   -6.392281e+01 -3.088342e+01 1.315000e+02
      vertex   -6.392281e+01 -3.346314e+01 1.283603e+02
      vertex   -6.392281e+01 -3.222183e+01 1.282207e+02
    endloop
  endfacet
  facet normal 1.000000e+00 0.000000e+00 0.000000e+00
    outer loop
      vertex   -6.392281e+01 -3.088342e+01 1.315000e+02
      vertex   -6.392281e+01 -3.222183e+01 1.282207e+02
      vertex   -6.392281e+01 -3.097743e+01 1.281120e+02
    endloop
  endfacet
  facet normal 1.000000e+00 -0.000000e+00 0.000000e+00
    outer loop
      vertex   -6.392281e+01 -3.097743e+01 1.281120e+02
      vertex   -6.392281e+01 -2.973072e+01 1.280344e+02
      vertex   -6.392281e+01 -3.088342e+01 1.315000e+02
    endloop
  endfacet
  facet normal 1.000000e+00 0.000000e+00 0.000000e+00
    outer loop
      vertex   -6.392281e+01 -3.088342e+01 1.315000e+02
      vertex   -6.392281e+01 -2.973072e+01 1.280344e+02
      vertex   -6.392281e+01 -2.848245e+01 1.279877e+02
    endloop
  endfacet
  facet normal 1.000000e+00 0.000000e+00 0.000000e+00
    outer loop
      vertex   -6.392281e+01 -3.088342e+01 1.315000e+02
      vertex   -6.392281e+01 -2.848245e+01 1.279877e+02
      vertex   -6.392281e+01 -2.723342e+01 1.279722e+02
    endloop
  endfacet
  facet normal 1.000000e+00 0.000000e+00 0.000000e+00
    outer loop
      vertex   -6.392281e+01 -2.473612e+01 1.280344e+02
      vertex   -6.392281e+01 -2.348941e+01 1.281120e+02
      vertex   -6.392281e+01 -2.358342e+01 1.315000e+02
    endloop
  endfacet
  facet normal 1.000000e+00 0.000000e+00 0.000000e+00
    outer loop
      vertex   -6.392281e+01 -2.358342e+01 1.315000e+02
      vertex   -6.392281e+01 -2.348941e+01 1.281120e+02
      vertex   -6.392281e+01 -2.224501e+01 1.282207e+02
    endloop
  endfacet
  facet normal 1.000000e+00 0.000000e+00 0.000000e+00
    outer loop
      vertex   -6.392281e+01 -2.358342e+01 1.315000e+02
      vertex   -6.392281e+01 -2.224501e+01 1.282207e+02
      vertex   -6.392281e+01 -2.100370e+01 1.283603e+02
    endloop
  endfacet
  facet normal 1.000000e+00 0.000000e+00 -0.000000e+00
    outer loop
      vertex   -6.392281e+01 -2.100370e+01 1.283603e+02
      vertex   -6.392281e+01 -1.976625e+01 1.285307e+02
      vertex   -6.392281e+01 -2.358342e+01 1.315000e+02
    endloop
  endfacet
  facet normal 1.000000e+00 -9.528361e-15 -1.224904e-14
    outer loop
      vertex   -6.392281e+01 -2.358342e+01 1.315000e+02
      vertex   -6.392281e+01 -1.976625e+01 1.285307e+02
      vertex   -6.392281e+01 -1.853342e+01 1.287318e+02
    endloop
  endfacet
  facet normal 1.000000e+00 -2.814031e-15 1.223952e-30
    outer loop
      vertex   -6.392281e+01 -2.358342e+01 1.315000e+02
      vertex   -6.392281e+01 -1.853342e+01 1.287318e+02
      vertex   -6.392281e+01 -1.853342e+01 1.369000e+02
    endloop
  endfacet
  facet normal 0.000000e+00 1.000000e+00 0.000000e+00
    outer loop
      vertex   -5.512281e+01 -1.733342e+01 1.371000e+02
      vertex   -5.512281e+01 -1.733342e+01 1.287346e+02
      vertex   -6.412281e+01 -1.733342e+01 1.371000e+02
    endloop
  endfacet
  facet normal -3.947460e-16 1.000000e+00 -4.246923e-16
    outer loop
      vertex   -6.412281e+01 -1.733342e+01 1.371000e+02
      vertex   -5.512281e+01 -1.733342e+01 1.287346e+02
      vertex   -6.412281e+01 -1.733342e+01 1.287346e+02
    endloop
  endfacet
  facet normal 1.494164e-15 1.620211e-01 -9.867873e-01
    outer loop
      vertex   -6.412281e+01 -1.831652e+01 1.275516e+02
      vertex   -5.512281e+01 -1.831652e+01 1.275516e+02
      vertex   -6.412281e+01 -1.949567e+01 1.273580e+02
    endloop
  endfacet
  facet normal -6.395717e-17 1.620211e-01 -9.867873e-01
    outer loop
      vertex   -6.412281e+01 -1.949567e+01 1.273580e+02
      vertex   -5.512281e+01 -1.831652e+01 1.275516e+02
      vertex   -5.512281e+01 -1.949567e+01 1.273580e+02
    endloop
  endfacet
  facet normal -5.488477e-17 1.390382e-01 -9.902870e-01
    outer loop
      vertex   -6.412281e+01 -1.949567e+01 1.273580e+02
      vertex   -5.512281e+01 -1.949567e+01 1.273580e+02
      vertex   -5.512281e+01 -2.067900e+01 1.271918e+02
    endloop
  endfacet
  facet normal 3.073788e-15 1.390382e-01 -9.902870e-01
    outer loop
      vertex   -6.412281e+01 -1.949567e+01 1.273580e+02
      vertex   -5.512281e+01 -2.067900e+01 1.271918e+02
      vertex   -6.412281e+01 -2.067900e+01 1.271918e+02
    endloop
  endfacet
  facet normal 3.090874e-15 1.159802e-01 -9.932515e-01
    outer loop
      vertex   -6.412281e+01 -2.067900e+01 1.271918e+02
      vertex   -5.512281e+01 -2.067900e+01 1.271918e+02
      vertex   -5.512281e+01 -2.186588e+01 1.270532e+02
    endloop
  endfacet
  facet normal -4.645524e-17 1.159802e-01 -9.932515e-01
    outer loop
      vertex   -6.412281e+01 -2.067900e+01 1.271918e+02
      vertex   -5.512281e+01 -2.186588e+01 1.270532e+02
      vertex   -6.412281e+01 -2.186588e+01 1.270532e+02
    endloop
  endfacet
  facet normal -3.665589e-17 9.285944e-02 -9.956792e-01
    outer loop
      vertex   -6.412281e+01 -2.186588e+01 1.270532e+02
      vertex   -5.512281e+01 -2.186588e+01 1.270532e+02
      vertex   -5.512281e+01 -2.305565e+01 1.269423e+02
    endloop
  endfacet
  facet normal -3.613185e-17 9.285944e-02 -9.956792e-01
    outer loop
      vertex   -6.412281e+01 -2.186588e+01 1.270532e+02
      vertex   -5.512281e+01 -2.305565e+01 1.269423e+02
      vertex   -6.412281e+01 -2.305565e+01 1.269423e+02
    endloop
  endfacet
  facet normal -2.750927e-17 6.968853e-02 -9.975688e-01
    outer loop
      vertex   -6.412281e+01 -2.305565e+01 1.269423e+02
      vertex   -5.512281e+01 -2.305565e+01 1.269423e+02
      vertex   -5.512281e+01 -2.424769e+01 1.268590e+02
    endloop
  endfacet
  facet normal 1.520119e-15 6.968853e-02 -9.975688e-01
    outer loop
      vertex   -6.412281e+01 -2.305565e+01 1.269423e+02
      vertex   -5.512281e+01 -2.424769e+01 1.268590e+02
      vertex   -6.412281e+01 -2.424769e+01 1.268590e+02
    endloop
  endfacet
  facet normal 1.540582e-15 4.647995e-02 -9.989192e-01
    outer loop
      vertex   -6.412281e+01 -2.424769e+01 1.268590e+02
      vertex   -5.512281e+01 -2.424769e+01 1.268590e+02
      vertex   -5.512281e+01 -2.544133e+01 1.268035e+02
    endloop
  endfacet
  facet normal 1.540765e-15 4.647995e-02 -9.989192e-01
    outer loop
      vertex   -6.412281e+01 -2.424769e+01 1.268590e+02
      vertex   -5.512281e+01 -2.544133e+01 1.268035e+02
      vertex   -6.412281e+01 -2.544133e+01 1.268035e+02
    endloop
  endfacet
  facet normal 1.560204e-15 2.324626e-02 -9.997298e-01
    outer loop
      vertex   -6.412281e+01 -2.544133e+01 1.268035e+02
      vertex   -5.512281e+01 -2.544133e+01 1.268035e+02
      vertex   -5.512281e+01 -2.663595e+01 1.267757e+02
    endloop
  endfacet
  facet normal 3.147988e-15 2.324626e-02 -9.997298e-01
    outer loop
      vertex   -6.412281e+01 -2.544133e+01 1.268035e+02
      vertex   -5.512281e+01 -2.663595e+01 1.267757e+02
      vertex   -6.412281e+01 -2.663595e+01 1.267757e+02
    endloop
  endfacet
  facet normal 3.157968e-15 2.378508e-14 -1.000000e+00
    outer loop
      vertex   -6.412281e+01 -2.663595e+01 1.267757e+02
      vertex   -5.512281e+01 -2.663595e+01 1.267757e+02
      vertex   -5.512281e+01 -2.783089e+01 1.267757e+02
    endloop
  endfacet
  facet normal 0.000000e+00 0.000000e+00 -1.000000e+00
    outer loop
      vertex   -6.412281e+01 -2.663595e+01 1.267757e+02
      vertex   -5.512281e+01 -2.783089e+01 1.267757e+02
      vertex   -6.412281e+01 -2.783089e+01 1.267757e+02
    endloop
  endfacet
  facet normal 1.835273e-17 -2.324626e-02 -9.997298e-01
    outer loop
      vertex   -6.412281e+01 -2.783089e+01 1.267757e+02
      vertex   -5.512281e+01 -2.783089e+01 1.267757e+02
      vertex   -5.512281e+01 -2.902550e+01 1.268035e+02
    endloop
  endfacet
  facet normal 1.596899e-15 -2.324626e-02 -9.997298e-01
    outer loop
      vertex   -6.412281e+01 -2.783089e+01 1.267757e+02
      vertex   -5.512281e+01 -2.902550e+01 1.268035e+02
      vertex   -6.412281e+01 -2.902550e+01 1.268035e+02
    endloop
  endfacet
  facet normal 1.613973e-15 -4.647995e-02 -9.989192e-01
    outer loop
      vertex   -6.412281e+01 -2.902550e+01 1.268035e+02
      vertex   -5.512281e+01 -2.902550e+01 1.268035e+02
      vertex   -5.512281e+01 -3.021915e+01 1.268590e+02
    endloop
  endfacet
  facet normal 1.578188e-15 -4.647995e-02 -9.989192e-01
    outer loop
      vertex   -6.412281e+01 -2.902550e+01 1.268035e+02
      vertex   -5.512281e+01 -3.021915e+01 1.268590e+02
      vertex   -6.412281e+01 -3.021915e+01 1.268590e+02
    endloop
  endfacet
  facet normal 1.575145e-15 -6.968853e-02 -9.975688e-01
    outer loop
      vertex   -6.412281e+01 -3.021915e+01 1.268590e+02
      vertex   -5.512281e+01 -3.021915e+01 1.268590e+02
      vertex   -5.512281e+01 -3.141118e+01 1.269423e+02
    endloop
  endfacet
  facet normal 2.709889e-17 -6.968853e-02 -9.975688e-01
    outer loop
      vertex   -6.412281e+01 -3.021915e+01 1.268590e+02
      vertex   -5.512281e+01 -3.141118e+01 1.269423e+02
      vertex   -6.412281e+01 -3.141118e+01 1.269423e+02
    endloop
  endfacet
  facet normal 3.665589e-17 -9.285944e-02 -9.956792e-01
    outer loop
      vertex   -6.412281e+01 -3.141118e+01 1.269423e+02
      vertex   -5.512281e+01 -3.141118e+01 1.269423e+02
      vertex   -5.512281e+01 -3.260096e+01 1.270532e+02
    endloop
  endfacet
  facet normal 0.000000e+00 -9.285944e-02 -9.956792e-01
    outer loop
      vertex   -6.412281e+01 -3.141118e+01 1.269423e+02
      vertex   -5.512281e+01 -3.260096e+01 1.270532e+02
      vertex   -6.412281e+01 -3.260096e+01 1.270532e+02
    endloop
  endfacet
  facet normal 0.000000e+00 -1.159802e-01 -9.932515e-01
    outer loop
      vertex   -6.412281e+01 -3.260096e+01 1.270532e+02
      vertex   -5.512281e+01 -3.260096e+01 1.270532e+02
      vertex   -5.512281e+01 -3.378783e+01 1.271918e+02
    endloop
  endfacet
  facet normal 3.135729e-15 -1.159802e-01 -9.932515e-01
    outer loop
      vertex   -6.412281e+01 -3.260096e+01 1.270532e+02
      vertex   -5.512281e+01 -3.378783e+01 1.271918e+02
      vertex   -6.412281e+01 -3.378783e+01 1.271918e+02
    endloop
  endfacet
  facet normal 3.127294e-15 -1.390382e-01 -9.902870e-01
    outer loop
      vertex   -6.412281e+01 -3.378783e+01 1.271918e+02
      vertex   -5.512281e+01 -3.378783e+01 1.271918e+02
      vertex   -5.512281e+01 -3.497117e+01 1.273580e+02
    endloop
  endfacet
  facet normal 0.000000e+00 -1.390382e-01 -9.902870e-01
    outer loop
      vertex   -6.412281e+01 -3.378783e+01 1.271918e+02
      vertex   -5.512281e+01 -3.497117e+01 1.273580e+02
      vertex   -6.412281e+01 -3.497117e+01 1.273580e+02
    endloop
  endfacet
  facet normal 0.000000e+00 -1.620211e-01 -9.867873e-01
    outer loop
      vertex   -6.412281e+01 -3.497117e+01 1.273580e+02
      vertex   -5.512281e+01 -3.497117e+01 1.273580e+02
      vertex   -6.412281e+01 -3.615032e+01 1.275516e+02
    endloop
  endfacet
  facet normal 0.000000e+00 -1.620211e-01 -9.867873e-01
    outer loop
      vertex   -6.412281e+01 -3.615032e+01 1.275516e+02
      vertex   -5.512281e+01 -3.497117e+01 1.273580e+02
      vertex   -5.512281e+01 -3.615032e+01 1.275516e+02
    endloop
  endfacet
  facet normal 1.000000e+00 1.184238e-14 -0.000000e+00
    outer loop
      vertex   -5.512281e+01 -1.733342e+01 1.287346e+02
      vertex   -5.512281e+01 -1.733342e+01 1.371000e+02
      vertex   -5.512281e+01 -1.853342e+01 1.369000e+02
    endloop
  endfacet
  facet normal 1.000000e+00 1.015061e-14 1.015061e-14
    outer loop
      vertex   -5.512281e+01 -1.853342e+01 1.369000e+02
      vertex   -5.512281e+01 -1.733342e+01 1.371000e+02
      vertex   -5.512281e+01 -1.833342e+01 1.381000e+02
    endloop
  endfacet
  facet normal 1.000000e+00 0.000000e+00 1.184238e-14
    outer loop
      vertex   -5.512281e+01 -1.853342e+01 1.369000e+02
      vertex   -5.512281e+01 -1.833342e+01 1.381000e+02
      vertex   -5.512281e+01 -3.613342e+01 1.381000e+02
    endloop
  endfacet
  facet normal 1.000000e+00 0.000000e+00 1.184238e-14
    outer loop
      vertex   -5.512281e+01 -1.853342e+01 1.369000e+02
      vertex   -5.512281e+01 -3.613342e+01 1.381000e+02
      vertex   -5.512281e+01 -3.593342e+01 1.369000e+02
    endloop
  endfacet
  facet normal 1.000000e+00 2.030122e-15 1.218073e-14
    outer loop
      vertex   -5.512281e+01 -3.593342e+01 1.369000e+02
      vertex   -5.512281e+01 -3.613342e+01 1.381000e+02
      vertex   -5.512281e+01 -3.713342e+01 1.371000e+02
    endloop
  endfacet
  facet normal 1.000000e+00 0.000000e+00 0.000000e+00
    outer loop
      vertex   -5.512281e+01 -3.593342e+01 1.369000e+02
      vertex   -5.512281e+01 -3.713342e+01 1.371000e+02
      vertex   -5.512281e+01 -3.713342e+01 1.287346e+02
    endloop
  endfacet
  facet normal 1.000000e+00 0.000000e+00 0.000000e+00
    outer loop
      vertex   -5.512281e+01 -3.593342e+01 1.369000e+02
      vertex   -5.512281e+01 -3.713342e+01 1.287346e+02
      vertex   -5.512281e+01 -3.593342e+01 1.287318e+02
    endloop
  endfacet
  facet normal 1.000000e+00 -2.791097e-17 -1.203522e-14
    outer loop
      vertex   -5.512281e+01 -3.593342e+01 1.287318e+02
      vertex   -5.512281e+01 -3.713342e+01 1.287346e+02
      vertex   -5.512281e+01 -3.615032e+01 1.275516e+02
    endloop
  endfacet
  facet normal 1.000000e+00 9.284027e-15 -1.374646e-14
    outer loop
      vertex   -5.512281e+01 -3.593342e+01 1.287318e+02
      vertex   -5.512281e+01 -3.615032e+01 1.275516e+02
      vertex   -5.512281e+01 -3.470059e+01 1.285307e+02
    endloop
  endfacet
  facet normal 1.000000e+00 0.000000e+00 0.000000e+00
    outer loop
      vertex   -5.512281e+01 -3.470059e+01 1.285307e+02
      vertex   -5.512281e+01 -3.615032e+01 1.275516e+02
      vertex   -5.512281e+01 -3.497117e+01 1.273580e+02
    endloop
  endfacet
  facet normal 1.000000e+00 0.000000e+00 0.000000e+00
    outer loop
      vertex   -5.512281e+01 -3.470059e+01 1.285307e+02
      vertex   -5.512281e+01 -3.497117e+01 1.273580e+02
      vertex   -5.512281e+01 -3.346314e+01 1.283603e+02
    endloop
  endfacet
  facet normal 1.000000e+00 0.000000e+00 0.000000e+00
    outer loop
      vertex   -5.512281e+01 -3.346314e+01 1.283603e+02
      vertex   -5.512281e+01 -3.497117e+01 1.273580e+02
      vertex   -5.512281e+01 -3.378783e+01 1.271918e+02
    endloop
  endfacet
  facet normal 1.000000e+00 0.000000e+00 0.000000e+00
    outer loop
      vertex   -5.512281e+01 -3.346314e+01 1.283603e+02
      vertex   -5.512281e+01 -3.378783e+01 1.271918e+02
      vertex   -5.512281e+01 -3.222183e+01 1.282207e+02
    endloop
  endfacet
  facet normal 1.000000e+00 0.000000e+00 0.000000e+00
    outer loop
      vertex   -5.512281e+01 -3.222183e+01 1.282207e+02
      vertex   -5.512281e+01 -3.378783e+01 1.271918e+02
      vertex   -5.512281e+01 -3.260096e+01 1.270532e+02
    endloop
  endfacet
  facet normal 1.000000e+00 0.000000e+00 0.000000e+00
    outer loop
      vertex   -5.512281e+01 -3.222183e+01 1.282207e+02
      vertex   -5.512281e+01 -3.260096e+01 1.270532e+02
      vertex   -5.512281e+01 -3.141118e+01 1.269423e+02
    endloop
  endfacet
  facet normal 1.000000e+00 0.000000e+00 0.000000e+00
    outer loop
      vertex   -5.512281e+01 -3.222183e+01 1.282207e+02
      vertex   -5.512281e+01 -3.141118e+01 1.269423e+02
      vertex   -5.512281e+01 -3.097743e+01 1.281120e+02
    endloop
  endfacet
  facet normal 1.000000e+00 0.000000e+00 0.000000e+00
    outer loop
      vertex   -5.512281e+01 -3.097743e+01 1.281120e+02
      vertex   -5.512281e+01 -3.141118e+01 1.269423e+02
      vertex   -5.512281e+01 -3.021915e+01 1.268590e+02
    endloop
  endfacet
  facet normal 1.000000e+00 0.000000e+00 0.000000e+00
    outer loop
      vertex   -5.512281e+01 -3.097743e+01 1.281120e+02
      vertex   -5.512281e+01 -3.021915e+01 1.268590e+02
      vertex   -5.512281e+01 -2.973072e+01 1.280344e+02
    endloop
  endfacet
  facet normal 1.000000e+00 0.000000e+00 0.000000e+00
    outer loop
      vertex   -5.512281e+01 -2.973072e+01 1.280344e+02
      vertex   -5.512281e+01 -3.021915e+01 1.268590e+02
      vertex   -5.512281e+01 -2.902550e+01 1.268035e+02
    endloop
  endfacet
  facet normal 1.000000e+00 0.000000e+00 0.000000e+00
    outer loop
      vertex   -5.512281e+01 -2.973072e+01 1.280344e+02
      vertex   -5.512281e+01 -2.902550e+01 1.268035e+02
      vertex   -5.512281e+01 -2.848245e+01 1.279877e+02
    endloop
  endfacet
  facet normal 1.000000e+00 0.000000e+00 0.000000e+00
    outer loop
      vertex   -5.512281e+01 -2.848245e+01 1.279877e+02
      vertex   -5.512281e+01 -2.902550e+01 1.268035e+02
      vertex   -5.512281e+01 -2.783089e+01 1.267757e+02
    endloop
  endfacet
  facet normal 1.000000e+00 0.000000e+00 0.000000e+00
    outer loop
      vertex   -5.512281e+01 -2.848245e+01 1.279877e+02
      vertex   -5.512281e+01 -2.783089e+01 1.267757e+02
      vertex   -5.512281e+01 -2.723342e+01 1.279722e+02
    endloop
  endfacet
  facet normal 1.000000e+00 0.000000e+00 0.000000e+00
    outer loop
      vertex   -5.512281e+01 -2.723342e+01 1.279722e+02
      vertex   -5.512281e+01 -2.783089e+01 1.267757e+02
      vertex   -5.512281e+01 -2.663595e+01 1.267757e+02
    endloop
  endfacet
  facet normal 1.000000e+00 -0.000000e+00 0.000000e+00
    outer loop
      vertex   -5.512281e+01 -2.723342e+01 1.279722e+02
      vertex   -5.512281e+01 -2.663595e+01 1.267757e+02
      vertex   -5.512281e+01 -2.598438e+01 1.279877e+02
    endloop
  endfacet
  facet normal 1.000000e+00 0.000000e+00 0.000000e+00
    outer loop
      vertex   -5.512281e+01 -2.598438e+01 1.279877e+02
      vertex   -5.512281e+01 -2.663595e+01 1.267757e+02
      vertex   -5.512281e+01 -2.544133e+01 1.268035e+02
    endloop
  endfacet
  facet normal 1.000000e+00 -0.000000e+00 0.000000e+00
    outer loop
      vertex   -5.512281e+01 -2.598438e+01 1.279877e+02
      vertex   -5.512281e+01 -2.544133e+01 1.268035e+02
      vertex   -5.512281e+01 -2.473612e+01 1.280344e+02
    endloop
  endfacet
  facet normal 1.000000e+00 0.000000e+00 0.000000e+00
    outer loop
      vertex   -5.512281e+01 -2.473612e+01 1.280344e+02
      vertex   -5.512281e+01 -2.544133e+01 1.268035e+02
      vertex   -5.512281e+01 -2.424769e+01 1.268590e+02
    endloop
  endfacet
  facet normal 1.000000e+00 -0.000000e+00 0.000000e+00
    outer loop
      vertex   -5.512281e+01 -2.473612e+01 1.280344e+02
      vertex   -5.512281e+01 -2.424769e+01 1.268590e+02
      vertex   -5.512281e+01 -2.348941e+01 1.281120e+02
    endloop
  endfacet
  facet normal 1.000000e+00 0.000000e+00 0.000000e+00
    outer loop
      vertex   -5.512281e+01 -2.348941e+01 1.281120e+02
      vertex   -5.512281e+01 -2.424769e+01 1.268590e+02
      vertex   -5.512281e+01 -2.305565e+01 1.269423e+02
    endloop
  endfacet
  facet normal 1.000000e+00 -0.000000e+00 0.000000e+00
    outer loop
      vertex   -5.512281e+01 -2.348941e+01 1.281120e+02
      vertex   -5.512281e+01 -2.305565e+01 1.269423e+02
      vertex   -5.512281e+01 -2.224501e+01 1.282207e+02
    endloop
  endfacet
  facet normal 1.000000e+00 0.000000e+00 0.000000e+00
    outer loop
      vertex   -5.512281e+01 -2.224501e+01 1.282207e+02
      vertex   -5.512281e+01 -2.305565e+01 1.269423e+02
      vertex   -5.512281e+01 -2.186588e+01 1.270532e+02
    endloop
  endfacet
  facet normal 1.000000e+00 0.000000e+00 0.000000e+00
    outer loop
      vertex   -5.512281e+01 -2.224501e+01 1.282207e+02
      vertex   -5.512281e+01 -2.186588e+01 1.270532e+02
      vertex   -5.512281e+01 -2.067900e+01 1.271918e+02
    endloop
  endfacet
  facet normal 1.000000e+00 -0.000000e+00 0.000000e+00
    outer loop
      vertex   -5.512281e+01 -2.224501e+01 1.282207e+02
      vertex   -5.512281e+01 -2.067900e+01 1.271918e+02
      vertex   -5.512281e+01 -2.100370e+01 1.283603e+02
    endloop
  endfacet
  facet normal 1.000000e+00 0.000000e+00 0.000000e+00
    outer loop
      vertex   -5.512281e+01 -2.100370e+01 1.283603e+02
      vertex   -5.512281e+01 -2.067900e+01 1.271918e+02
      vertex   -5.512281e+01 -1.949567e+01 1.273580e+02
    endloop
  endfacet
  facet normal 1.000000e+00 -0.000000e+00 0.000000e+00
    outer loop
      vertex   -5.512281e+01 -2.100370e+01 1.283603e+02
      vertex   -5.512281e+01 -1.949567e+01 1.273580e+02
      vertex   -5.512281e+01 -1.976625e+01 1.285307e+02
    endloop
  endfacet
  facet normal 1.000000e+00 0.000000e+00 0.000000e+00
    outer loop
      vertex   -5.512281e+01 -1.976625e+01 1.285307e+02
      vertex   -5.512281e+01 -1.949567e+01 1.273580e+02
      vertex   -5.512281e+01 -1.831652e+01 1.275516e+02
    endloop
  endfacet
  facet normal 1.000000e+00 -9.284027e-15 -1.374646e-14
    outer loop
      vertex   -5.512281e+01 -1.976625e+01 1.285307e+02
      vertex   -5.512281e+01 -1.831652e+01 1.275516e+02
      vertex   -5.512281e+01 -1.853342e+01 1.287318e+02
    endloop
  endfacet
  facet normal 1.000000e+00 1.186525e-14 -9.859884e-15
    outer loop
      vertex   -5.512281e+01 -1.853342e+01 1.287318e+02
      vertex   -5.512281e+01 -1.831652e+01 1.275516e+02
      vertex   -5.512281e+01 -1.733342e+01 1.287346e+02
    endloop
  endfacet
  facet normal 1.000000e+00 1.184238e-14 -5.150800e-30
    outer loop
      vertex   -5.512281e+01 -1.853342e+01 1.287318e+02
      vertex   -5.512281e+01 -1.733342e+01 1.287346e+02
      vertex   -5.512281e+01 -1.853342e+01 1.369000e+02
    endloop
  endfacet
endsolid
